<?xml version="1.0" ?><svg viewBox="0 0 32 32" xmlns="http://www.w3.org/2000/svg"><defs><style>.cls-1{fill:#fff;}.cls-2{fill:#9ac3f4;}.cls-3{fill:#2f7ded;}</style></defs><title/><g id="Drops"><path class="cls-1" d="M10.83,16.45a1,1,0,0,0-1.66,0L6.28,20.77a4.77,4.77,0,0,0-.34,4.64A4.39,4.39,0,0,0,9.41,28,5.83,5.83,0,0,0,10,28a5.49,5.49,0,0,0,.58,0,4.39,4.39,0,0,0,3.48-2.56,4.77,4.77,0,0,0-.34-4.64Z"/><path class="cls-2" d="M19.12,10.25,16.86,6.49a1,1,0,0,0-1.72,0l-2.26,3.76a3.89,3.89,0,0,0-.16,3.69,3.54,3.54,0,0,0,2.74,2,3.67,3.67,0,0,0,1.08,0,3.54,3.54,0,0,0,2.74-2A3.89,3.89,0,0,0,19.12,10.25Z"/><path class="cls-1" d="M26.12,18.25l-2.26-3.76a1,1,0,0,0-1.72,0l-2.26,3.76a3.89,3.89,0,0,0-.16,3.69,3.54,3.54,0,0,0,2.74,2,3.67,3.67,0,0,0,1.08,0,3.54,3.54,0,0,0,2.74-2A3.89,3.89,0,0,0,26.12,18.25Z"/><path class="cls-3" d="M10.83,16.45a1,1,0,0,0-1.66,0L6.28,20.77a4.77,4.77,0,0,0-.34,4.64A4.39,4.39,0,0,0,9.41,28,5.83,5.83,0,0,0,10,28a5.49,5.49,0,0,0,.58,0,4.39,4.39,0,0,0,3.48-2.56,4.77,4.77,0,0,0-.34-4.64Zm1.42,8.12A2.37,2.37,0,0,1,10.35,26a2.73,2.73,0,0,1-.7,0,2.37,2.37,0,0,1-1.9-1.41A2.77,2.77,0,0,1,8,21.88L10,18.8l2.05,3.08A2.77,2.77,0,0,1,12.25,24.57Z"/><path class="cls-3" d="M19.12,10.25,16.86,6.49a1,1,0,0,0-1.72,0l-2.26,3.76a3.89,3.89,0,0,0-.16,3.69,3.54,3.54,0,0,0,2.74,2,3.67,3.67,0,0,0,1.08,0,3.54,3.54,0,0,0,2.74-2A3.89,3.89,0,0,0,19.12,10.25Zm-1.64,2.83a1.59,1.59,0,0,1-1.2.9,2.53,2.53,0,0,1-.55,0,1.59,1.59,0,0,1-1.21-.9,1.94,1.94,0,0,1,.08-1.8L16,8.94l1.4,2.34A1.94,1.94,0,0,1,17.48,13.08Z"/><path class="cls-3" d="M26.12,18.25l-2.26-3.76a1,1,0,0,0-1.72,0l-2.26,3.76a3.89,3.89,0,0,0-.16,3.69,3.54,3.54,0,0,0,2.74,2,3.67,3.67,0,0,0,1.08,0,3.54,3.54,0,0,0,2.74-2A3.89,3.89,0,0,0,26.12,18.25Zm-1.64,2.83a1.59,1.59,0,0,1-1.2.9,2.53,2.53,0,0,1-.55,0,1.59,1.59,0,0,1-1.21-.9,1.94,1.94,0,0,1,.08-1.8L23,16.94l1.4,2.34A1.94,1.94,0,0,1,24.48,21.08Z"/></g></svg>